<?xml version="1.0" standalone="no"?>
<svg width="64" height="64" viewBox="0 0 1024 768" version="1.1" xmlns="http://www.w3.org/2000/svg">
  <path d="M401 448l205 354q-60 9 -94 9q-158 0 -269 -98l158 -269v4zM917 512q-29 94 -96.5 165.5t-159.5 103.5l-153 -269h409zM930 469h-320l13 -21l205 -354q52 59 81.5 133.5t29.5 156.5q0 34 -9 85zM363 384l-167 290q-52 -59 -81.5 -133.5t-29.5 -156.5q0 -34 9 -85h320z    M107 256q29 -94 96.5 -165.5t159.5 -103.5l158 269h-414zM585 256l-167 -290q30 -9 94 -9q158 0 269 98l-158 269z" transform="matrix(1,0,0,-1,0,768)"/>
</svg>